<mxfile host="app.diagrams.net" agent="Mozilla/5.0 (Windows NT 10.0; Win64; x64) AppleWebKit/537.36 (KHTML, like Gecko) Chrome/128.0.0.0 Safari/537.36 OPR/114.0.0.0" version="25.0.1">
  <diagram name="Страница — 1" id="i3X8cp680U3Xau9xNnNO">
    <mxGraphModel dx="1391" dy="753" grid="1" gridSize="10" guides="1" tooltips="1" connect="1" arrows="1" fold="1" page="1" pageScale="1" pageWidth="827" pageHeight="1169" math="0" shadow="0">
      <root>
        <mxCell id="0" />
        <mxCell id="1" parent="0" />
        <mxCell id="SPV3-TDqFG6wdVv40AAE-28" style="edgeStyle=orthogonalEdgeStyle;rounded=0;orthogonalLoop=1;jettySize=auto;html=1;exitX=1;exitY=0.5;exitDx=0;exitDy=0;entryX=0;entryY=0.5;entryDx=0;entryDy=0;" edge="1" parent="1" source="SPV3-TDqFG6wdVv40AAE-20" target="SPV3-TDqFG6wdVv40AAE-26">
          <mxGeometry relative="1" as="geometry">
            <mxPoint x="341" y="270" as="targetPoint" />
            <Array as="points">
              <mxPoint x="342" y="200" />
              <mxPoint x="342" y="268" />
            </Array>
          </mxGeometry>
        </mxCell>
        <mxCell id="SPV3-TDqFG6wdVv40AAE-20" value="Оформлення замовлення" style="rounded=0;whiteSpace=wrap;html=1;fontSize=14;fillColor=#d5e8d4;strokeColor=#82b366;strokeWidth=2;fontFamily=Georgia;" vertex="1" parent="1">
          <mxGeometry x="170" y="170" width="150" height="60" as="geometry" />
        </mxCell>
        <mxCell id="SPV3-TDqFG6wdVv40AAE-21" value="" style="endArrow=classic;html=1;rounded=0;entryX=0;entryY=0.5;entryDx=0;entryDy=0;" edge="1" parent="1" source="SPV3-TDqFG6wdVv40AAE-22" target="SPV3-TDqFG6wdVv40AAE-20">
          <mxGeometry width="50" height="50" relative="1" as="geometry">
            <mxPoint x="70" y="199.5" as="sourcePoint" />
            <mxPoint x="140" y="199.5" as="targetPoint" />
          </mxGeometry>
        </mxCell>
        <mxCell id="SPV3-TDqFG6wdVv40AAE-22" value="Замовлення" style="text;html=1;align=center;verticalAlign=middle;resizable=0;points=[];autosize=1;strokeColor=none;fillColor=none;fontSize=14;fontFamily=Georgia;" vertex="1" parent="1">
          <mxGeometry x="40" y="185" width="100" height="30" as="geometry" />
        </mxCell>
        <mxCell id="SPV3-TDqFG6wdVv40AAE-24" value="" style="endArrow=none;html=1;rounded=0;entryX=-0.02;entryY=0.467;entryDx=0;entryDy=0;entryPerimeter=0;" edge="1" parent="1" target="SPV3-TDqFG6wdVv40AAE-22">
          <mxGeometry width="50" height="50" relative="1" as="geometry">
            <mxPoint x="10" y="199" as="sourcePoint" />
            <mxPoint y="199.5" as="targetPoint" />
          </mxGeometry>
        </mxCell>
        <mxCell id="SPV3-TDqFG6wdVv40AAE-25" value="А1" style="text;html=1;align=center;verticalAlign=middle;resizable=0;points=[];autosize=1;strokeColor=none;fillColor=none;fontFamily=Georgia;fontSize=14;" vertex="1" parent="1">
          <mxGeometry x="290" y="208" width="40" height="30" as="geometry" />
        </mxCell>
        <mxCell id="SPV3-TDqFG6wdVv40AAE-31" style="edgeStyle=orthogonalEdgeStyle;rounded=0;orthogonalLoop=1;jettySize=auto;html=1;exitX=1;exitY=0.5;exitDx=0;exitDy=0;entryX=0;entryY=0.5;entryDx=0;entryDy=0;" edge="1" parent="1" source="SPV3-TDqFG6wdVv40AAE-26" target="SPV3-TDqFG6wdVv40AAE-29">
          <mxGeometry relative="1" as="geometry">
            <mxPoint x="561" y="340" as="targetPoint" />
            <Array as="points">
              <mxPoint x="562" y="268" />
              <mxPoint x="562" y="336" />
            </Array>
          </mxGeometry>
        </mxCell>
        <mxCell id="SPV3-TDqFG6wdVv40AAE-26" value="Складання робочого плану" style="rounded=0;whiteSpace=wrap;html=1;fontSize=14;fillColor=#d5e8d4;strokeColor=#82b366;strokeWidth=2;fontFamily=Georgia;" vertex="1" parent="1">
          <mxGeometry x="385" y="238" width="150" height="60" as="geometry" />
        </mxCell>
        <mxCell id="SPV3-TDqFG6wdVv40AAE-27" value="А2" style="text;html=1;align=center;verticalAlign=middle;resizable=0;points=[];autosize=1;strokeColor=none;fillColor=none;fontFamily=Georgia;fontSize=14;" vertex="1" parent="1">
          <mxGeometry x="503" y="276" width="40" height="30" as="geometry" />
        </mxCell>
        <mxCell id="SPV3-TDqFG6wdVv40AAE-46" style="edgeStyle=orthogonalEdgeStyle;rounded=0;orthogonalLoop=1;jettySize=auto;html=1;exitX=1;exitY=0.5;exitDx=0;exitDy=0;" edge="1" parent="1" source="SPV3-TDqFG6wdVv40AAE-47">
          <mxGeometry relative="1" as="geometry">
            <mxPoint x="911" y="336" as="targetPoint" />
          </mxGeometry>
        </mxCell>
        <mxCell id="SPV3-TDqFG6wdVv40AAE-29" value="Відправка замовнику" style="rounded=0;whiteSpace=wrap;html=1;fontSize=14;fillColor=#d5e8d4;strokeColor=#82b366;strokeWidth=2;fontFamily=Georgia;" vertex="1" parent="1">
          <mxGeometry x="601" y="306" width="150" height="60" as="geometry" />
        </mxCell>
        <mxCell id="SPV3-TDqFG6wdVv40AAE-33" value="А3" style="text;html=1;align=center;verticalAlign=middle;resizable=0;points=[];autosize=1;strokeColor=none;fillColor=none;fontFamily=Georgia;fontSize=14;" vertex="1" parent="1">
          <mxGeometry x="721" y="341" width="40" height="30" as="geometry" />
        </mxCell>
        <mxCell id="SPV3-TDqFG6wdVv40AAE-34" value="" style="endArrow=classic;html=1;rounded=0;entryX=0.5;entryY=0;entryDx=0;entryDy=0;" edge="1" parent="1" source="SPV3-TDqFG6wdVv40AAE-35" target="SPV3-TDqFG6wdVv40AAE-26">
          <mxGeometry width="50" height="50" relative="1" as="geometry">
            <mxPoint x="460" y="120" as="sourcePoint" />
            <mxPoint x="451" y="170" as="targetPoint" />
          </mxGeometry>
        </mxCell>
        <mxCell id="SPV3-TDqFG6wdVv40AAE-35" value="&amp;nbsp;Стратегія, Бюджет,&amp;nbsp;&lt;div&gt;Терміни, Вимоги клієнта&amp;nbsp;&lt;/div&gt;" style="text;html=1;align=center;verticalAlign=middle;resizable=0;points=[];autosize=1;strokeColor=none;fillColor=none;fontSize=14;fontFamily=Georgia;" vertex="1" parent="1">
          <mxGeometry x="365" y="135" width="190" height="50" as="geometry" />
        </mxCell>
        <mxCell id="SPV3-TDqFG6wdVv40AAE-39" value="Менеджер" style="text;html=1;align=center;verticalAlign=middle;resizable=0;points=[];autosize=1;strokeColor=none;fillColor=none;fontFamily=Georgia;fontSize=14;" vertex="1" parent="1">
          <mxGeometry x="290" y="400" width="90" height="30" as="geometry" />
        </mxCell>
        <mxCell id="SPV3-TDqFG6wdVv40AAE-42" value="" style="endArrow=classic;html=1;rounded=0;entryX=0.5;entryY=1;entryDx=0;entryDy=0;exitX=0.456;exitY=-0.033;exitDx=0;exitDy=0;exitPerimeter=0;" edge="1" parent="1" source="SPV3-TDqFG6wdVv40AAE-39" target="SPV3-TDqFG6wdVv40AAE-20">
          <mxGeometry width="50" height="50" relative="1" as="geometry">
            <mxPoint x="331" y="370" as="sourcePoint" />
            <mxPoint x="231" y="340" as="targetPoint" />
            <Array as="points">
              <mxPoint x="331" y="320" />
              <mxPoint x="245" y="320" />
            </Array>
          </mxGeometry>
        </mxCell>
        <mxCell id="SPV3-TDqFG6wdVv40AAE-45" value="" style="endArrow=none;html=1;rounded=0;entryX=0.444;entryY=0.867;entryDx=0;entryDy=0;entryPerimeter=0;" edge="1" parent="1" target="SPV3-TDqFG6wdVv40AAE-39">
          <mxGeometry width="50" height="50" relative="1" as="geometry">
            <mxPoint x="330" y="470" as="sourcePoint" />
            <mxPoint x="330" y="460" as="targetPoint" />
          </mxGeometry>
        </mxCell>
        <mxCell id="SPV3-TDqFG6wdVv40AAE-47" value="Рекламний&lt;div&gt;звіт&lt;/div&gt;" style="text;html=1;align=center;verticalAlign=middle;resizable=0;points=[];autosize=1;strokeColor=none;fillColor=none;fontSize=14;fontFamily=Georgia;" vertex="1" parent="1">
          <mxGeometry x="781" y="311" width="100" height="50" as="geometry" />
        </mxCell>
        <mxCell id="SPV3-TDqFG6wdVv40AAE-49" value="" style="endArrow=none;html=1;rounded=0;exitX=1;exitY=0.5;exitDx=0;exitDy=0;entryX=-0.01;entryY=0.5;entryDx=0;entryDy=0;entryPerimeter=0;" edge="1" parent="1" source="SPV3-TDqFG6wdVv40AAE-29" target="SPV3-TDqFG6wdVv40AAE-47">
          <mxGeometry width="50" height="50" relative="1" as="geometry">
            <mxPoint x="781" y="335.51" as="sourcePoint" />
            <mxPoint x="849" y="335.5" as="targetPoint" />
          </mxGeometry>
        </mxCell>
        <mxCell id="SPV3-TDqFG6wdVv40AAE-51" value="" style="endArrow=classic;html=1;rounded=0;entryX=0.5;entryY=1;entryDx=0;entryDy=0;" edge="1" parent="1" source="SPV3-TDqFG6wdVv40AAE-40" target="SPV3-TDqFG6wdVv40AAE-26">
          <mxGeometry width="50" height="50" relative="1" as="geometry">
            <mxPoint x="460" y="470" as="sourcePoint" />
            <mxPoint x="503" y="420" as="targetPoint" />
          </mxGeometry>
        </mxCell>
        <mxCell id="SPV3-TDqFG6wdVv40AAE-40" value="Команда" style="text;html=1;align=center;verticalAlign=middle;resizable=0;points=[];autosize=1;strokeColor=none;fillColor=none;fontFamily=Georgia;fontSize=14;" vertex="1" parent="1">
          <mxGeometry x="420" y="400" width="80" height="30" as="geometry" />
        </mxCell>
        <mxCell id="SPV3-TDqFG6wdVv40AAE-53" value="" style="endArrow=none;html=1;rounded=0;entryX=0.488;entryY=1.033;entryDx=0;entryDy=0;entryPerimeter=0;" edge="1" parent="1" target="SPV3-TDqFG6wdVv40AAE-40">
          <mxGeometry width="50" height="50" relative="1" as="geometry">
            <mxPoint x="459" y="470" as="sourcePoint" />
            <mxPoint x="459.5" y="430" as="targetPoint" />
          </mxGeometry>
        </mxCell>
        <mxCell id="SPV3-TDqFG6wdVv40AAE-54" value="" style="endArrow=none;html=1;rounded=0;exitX=0.495;exitY=-0.02;exitDx=0;exitDy=0;exitPerimeter=0;" edge="1" parent="1" source="SPV3-TDqFG6wdVv40AAE-35">
          <mxGeometry width="50" height="50" relative="1" as="geometry">
            <mxPoint x="459.5" y="110" as="sourcePoint" />
            <mxPoint x="460" y="100" as="targetPoint" />
          </mxGeometry>
        </mxCell>
        <mxCell id="SPV3-TDqFG6wdVv40AAE-55" value="" style="endArrow=classic;html=1;rounded=0;entryX=0.5;entryY=1;entryDx=0;entryDy=0;" edge="1" parent="1" target="SPV3-TDqFG6wdVv40AAE-29">
          <mxGeometry width="50" height="50" relative="1" as="geometry">
            <mxPoint x="331" y="380" as="sourcePoint" />
            <mxPoint x="671" y="380" as="targetPoint" />
            <Array as="points">
              <mxPoint x="676" y="380" />
            </Array>
          </mxGeometry>
        </mxCell>
        <mxCell id="SPV3-TDqFG6wdVv40AAE-56" value="" style="endArrow=classic;html=1;rounded=0;entryX=0.7;entryY=0.967;entryDx=0;entryDy=0;entryPerimeter=0;" edge="1" parent="1" target="SPV3-TDqFG6wdVv40AAE-29">
          <mxGeometry width="50" height="50" relative="1" as="geometry">
            <mxPoint x="461" y="390" as="sourcePoint" />
            <mxPoint x="711" y="390" as="targetPoint" />
            <Array as="points">
              <mxPoint x="706" y="390" />
            </Array>
          </mxGeometry>
        </mxCell>
      </root>
    </mxGraphModel>
  </diagram>
</mxfile>
